<?xml version="1.0" encoding="UTF-8" standalone="no"?>
<svg
   xmlns:dc="http://purl.org/dc/elements/1.1/"
   xmlns:cc="http://creativecommons.org/ns#"
   xmlns:rdf="http://www.w3.org/1999/02/22-rdf-syntax-ns#"
   xmlns:svg="http://www.w3.org/2000/svg"
   xmlns="http://www.w3.org/2000/svg"
   xmlns:sodipodi="http://sodipodi.sourceforge.net/DTD/sodipodi-0.dtd"
   xmlns:inkscape="http://www.inkscape.org/namespaces/inkscape"
   width="198.33267mm"
   height="156.53162mm"
   viewBox="0 0 198.33267 156.53162"
   version="1.1"
   id="svg8"
   inkscape:version="1.0.2 (e86c870879, 2021-01-15, custom)"
   sodipodi:docname="see.svg">
  <defs
     id="defs2" />
  <sodipodi:namedview
     id="base"
     pagecolor="#ffffff"
     bordercolor="#666666"
     borderopacity="1.0"
     inkscape:pageopacity="0.0"
     inkscape:pageshadow="2"
     inkscape:zoom="0.7"
     inkscape:cx="439.83775"
     inkscape:cy="311.09975"
     inkscape:document-units="mm"
     inkscape:current-layer="layer1"
     inkscape:document-rotation="0"
     showgrid="false"
     inkscape:window-width="1920"
     inkscape:window-height="1001"
     inkscape:window-x="2391"
     inkscape:window-y="-9"
     inkscape:window-maximized="1"
     fit-margin-top="0"
     fit-margin-left="0"
     fit-margin-right="0"
     fit-margin-bottom="0" />
  <metadata
     id="metadata5">
    <rdf:RDF>
      <cc:Work
         rdf:about="">
        <dc:format>image/svg+xml</dc:format>
        <dc:type
           rdf:resource="http://purl.org/dc/dcmitype/StillImage" />
        <dc:title />
      </cc:Work>
    </rdf:RDF>
  </metadata>
  <g
     inkscape:label="Layer 1"
     inkscape:groupmode="layer"
     id="layer1"
     transform="translate(-7.0503711,-70.592558)">
    <path
       style="opacity:0.29393;fill:#07565b;fill-opacity:1;stroke:#de2922;stroke-width:0;stroke-linejoin:round;stop-color:#000000"
       d=""
       id="path877"
       transform="scale(0.26458333)" />
    <path
       d="m 106.87258,205.72886 c 50.55964,0 90.56987,-54.96936 92.24537,-57.3081 l 1.90431,-2.66002 -1.90431,-2.66003 c -1.6755,-2.33875 -41.68573,-57.308138 -92.24537,-57.308138 -50.559684,0 -90.569907,54.969388 -92.245404,57.308138 l -1.904326,2.66003 1.904326,2.66002 c 1.675497,2.33874 41.68572,57.3081 92.245404,57.3081 z m 0,-111.369412 c 40.70059,0 75.51368,40.521342 84.12386,51.401292 -8.59855,10.8885 -43.36509,51.40124 -84.12386,51.40124 -40.700631,0 -75.513713,-40.52131 -84.1239,-51.40124 8.598552,-10.88851 43.365093,-51.401292 84.1239,-51.401292 z"
       id="path1459"
       style="fill:#07565b;fill-opacity:1;stroke:#07565b;stroke-width:4.08977;stroke-miterlimit:4;stroke-dasharray:none;stroke-opacity:1" />
    <path
       d="m 106.87258,181.04484 c 19.24882,0 34.90617,-15.66122 34.90617,-34.90616 0,-19.24494 -15.65735,-34.90617 -34.90617,-34.90617 -19.248852,0 -34.906207,15.66123 -34.906207,34.90617 0,19.24494 15.657355,34.90616 34.906207,34.90616 z m 0,-62.05541 c 14.96699,0 27.14924,12.17838 27.14924,27.14925 0,14.97086 -12.18225,27.14923 -27.14924,27.14923 -14.96703,0 -27.149281,-12.17837 -27.149281,-27.14923 0,-14.97087 12.182251,-27.14925 27.149281,-27.14925 z"
       id="path1461"
       style="fill:#07565b;fill-opacity:1;stroke:#07565b;stroke-width:3.89164;stroke-miterlimit:4;stroke-dasharray:none;stroke-opacity:1" />
    <g
       id="g1464"
       style="fill:#07565b;fill-opacity:1"
       transform="matrix(4.1494468,0,0,4.1494468,-77.220025,-0.21920339)" />
  </g>
</svg>
